<?xml version="1.0" encoding="UTF-8"?>
<svg id="Layer_1" xmlns="http://www.w3.org/2000/svg" version="1.1" xmlns:xlink="http://www.w3.org/1999/xlink" viewBox="0 0 240 240">
  <!-- Generator: Adobe Illustrator 29.8.1, SVG Export Plug-In . SVG Version: 2.1.1 Build 2)  -->
  <defs>
    <style>
      .st0 {
        fill: #211526;
      }

      .st1 {
        display: none;
        fill: #99f;
      }

      .st2 {
        fill: url(#linear-gradient);
      }
    </style>
    <linearGradient id="linear-gradient" x1="119.9" y1="238.05" x2="119.9" y2="65.98" gradientUnits="userSpaceOnUse">
      <stop offset="0" stop-color="#9000d8"/>
      <stop offset="1" stop-color="#ff1796"/>
    </linearGradient>
  </defs>
  <path id="Vector" class="st0" d="M196.96,0H43.04C19.27,0,0,19.27,0,43.04v153.92c0,23.77,19.27,43.04,43.04,43.04h153.92c23.77,0,43.04-19.27,43.04-43.04V43.04c0-23.77-19.27-43.04-43.04-43.04Z"/>
  <path id="Vector_2" class="st1" d="M92.55,63.71c31.37,0,49.04,14.7,49.04,39.3,0,28.73-23.94,40.29-46.4,40.29h-15.19v31.04h-30.71V63.71h43.26ZM80,89.96v27.08h13.54c9.41,0,16.02-3.8,16.02-13.38,0-8.75-5.61-13.71-15.36-13.71h-14.2Z"/>
  <path id="Vector_3" class="st1" d="M184.41,86.66c6.77,0,12.22.83,14.7,1.65v22.46c-1.98-.49-5.78-.83-8.92-.83-6.11,0-9.58.5-12.71,1.65v62.75h-28.9v-80.42c10.4-4.62,20.81-7.27,35.83-7.27Z"/>
  <path class="st2" d="M127.99,81.62c-3.2-5.63-7.72-10.08-13.45-13.23-5.7-3.12-12.44-4.71-20.04-4.71h-45.2v110.56h27.33v-35.42h17.87c7.6,0,14.34-1.59,20.04-4.71,5.73-3.14,10.25-7.59,13.45-13.22,3.18-5.61,4.8-12.22,4.8-19.64s-1.62-14.02-4.8-19.63ZM104.16,101.25c0,4.43-1.14,7.59-3.49,9.66-2.4,2.11-6.22,3.17-11.36,3.17h-12.68v-25.66h12.68c5.14,0,8.96,1.07,11.36,3.17,2.35,2.07,3.49,5.23,3.49,9.66ZM190.51,145.49l-.83,5.21c-.73,4.62-2.47,8.75-5.18,12.28-2.69,3.52-6.17,6.27-10.34,8.19-4.09,1.88-8.73,2.83-13.77,2.83-6.05,0-11.4-1.31-15.92-3.91-4.59-2.63-8.18-6.42-10.66-11.24-2.41-4.68-3.63-10.23-3.63-16.48s1.28-11.78,3.81-16.5c2.58-4.82,6.25-8.62,10.92-11.29,4.61-2.64,9.98-3.98,15.97-3.98,5.05,0,9.65.94,13.68,2.8,4.1,1.9,7.51,4.63,10.14,8.1,2.65,3.52,4.3,7.68,4.93,12.38l.67,5.09h-20.7l-.94-3.27c-.46-1.62-1.27-2.77-2.53-3.6-1.42-.94-3.23-1.39-5.53-1.39-2.01,0-3.65.41-5,1.24-1.3.81-2.29,1.98-3.01,3.56-.82,1.8-1.23,4.08-1.23,6.79s.42,4.85,1.26,6.66c.75,1.63,1.76,2.83,3.09,3.67,1.34.85,2.94,1.26,4.89,1.26,2.34,0,4.22-.49,5.74-1.49,1.34-.89,2.17-2.04,2.59-3.59l.91-3.32h20.67Z"/>
</svg>