<?xml version="1.0" encoding="UTF-8"?>
<svg id="Layer_1" xmlns="http://www.w3.org/2000/svg" version="1.1" viewBox="0 0 240 240">
  <!-- Generator: Adobe Illustrator 29.8.1, SVG Export Plug-In . SVG Version: 2.1.1 Build 2)  -->
  <defs>
    <style>
      .st0 {
        fill: #09090b;
      }

      .st1 {
        fill: #ff1796;
      }
    </style>
  </defs>
  <path id="Vector" class="st1" d="M196.96,0H43.04C19.27,0,0,19.27,0,43.04v153.92c0,23.77,19.27,43.04,43.04,43.04h153.92c23.77,0,43.04-19.27,43.04-43.04V43.04c0-23.77-19.27-43.04-43.04-43.04Z"/>
  <rect class="st1" x="28.91" y="43.77" width="182.17" height="152.46"/>
  <path class="st0" d="M69.32,63.71v110.63h-24.22V63.71h24.22ZM89.95,137.56h-26.62v-21.52h21.23c5.88,0,10.27-1.28,13.16-3.81,2.88-2.54,4.33-6.41,4.33-11.6s-1.45-9.04-4.33-11.58c-2.9-2.54-7.29-3.81-13.16-3.81h-21.23v-21.54h26.62c7.57,0,14.17,1.55,19.81,4.64,5.62,3.09,10.01,7.4,13.15,12.93,3.14,5.54,4.71,11.98,4.71,19.36s-1.57,13.83-4.71,19.37c-3.14,5.52-7.53,9.84-13.15,12.92-5.63,3.09-12.24,4.64-19.81,4.64Z"/>
  <path class="st0" d="M128.77,140.11c0-6.63,1.42-12.51,4.26-17.64,2.85-5.12,6.74-9.15,11.69-12.08,4.95-2.92,10.66-4.38,17.13-4.38,9.56,0,17.31,2.45,23.25,7.36,5.95,4.91,9.22,11.59,9.82,20.03h-20.02c-.69-3.28-2.05-5.69-4.07-7.23-2.03-1.56-4.76-2.33-8.21-2.33-2.75,0-5.18.67-7.3,2.01s-3.72,3.21-4.85,5.61c-1.11,2.42-1.67,5.3-1.67,8.66s.54,6.39,1.61,8.84c1.08,2.46,2.63,4.33,4.66,5.62,2.02,1.29,4.45,1.93,7.3,1.93,3.53,0,6.35-.79,8.46-2.39,2.1-1.6,3.46-3.98,4.07-7.17h20.02c-.43,5.43-2.08,10.19-4.97,14.28-2.88,4.09-6.7,7.3-11.43,9.62-4.74,2.32-10.12,3.49-16.15,3.49-6.8,0-12.73-1.42-17.77-4.27-5.04-2.84-8.94-6.82-11.69-11.94-2.75-5.12-4.13-11.13-4.13-18.02Z"/>
</svg>